<svg width="100" height="20" viewBox="0 0 100 20" fill="none" xmlns="http://www.w3.org/2000/svg">
<path d="M37.0175 12.2426C37.0175 10.2159 37.0175 8.18915 37.0175 6.16241C37.0175 5.78176 36.9962 5.80233 37.3802 5.80233C40.4312 5.80233 43.4715 5.80233 46.5225 5.80233C46.9386 5.80233 46.9066 5.77147 46.9066 6.16241C46.9066 6.77969 46.9066 7.38668 46.9066 8.00396C46.9066 8.07598 46.9066 8.13771 46.9066 8.20972C46.9066 8.27145 46.8639 8.30232 46.8105 8.30232C46.7145 8.31261 46.6292 8.3126 46.5332 8.3126C44.453 8.3126 42.3727 8.3126 40.2818 8.3126C39.8551 8.3126 39.8658 8.27145 39.8658 8.71384C39.8658 9.33112 39.8658 9.93811 39.8658 10.5554C39.8658 10.6171 39.8658 10.6788 39.8658 10.7303C39.8765 10.9052 39.8978 10.9258 40.0898 10.936C40.1752 10.936 40.2498 10.936 40.3352 10.936C42.106 10.936 43.8876 10.936 45.6584 10.936C45.7544 10.936 45.8398 10.936 45.9358 10.9463C46.0105 10.9463 46.0425 10.9978 46.0531 11.0595C46.0531 11.1109 46.0531 11.1624 46.0531 11.2035C46.0531 11.862 46.0531 12.5307 46.0531 13.1891C46.0531 13.2406 46.0531 13.292 46.0531 13.3331C46.0531 13.4052 46.0105 13.4463 45.9358 13.4463C45.8398 13.4566 45.7544 13.4463 45.6584 13.4463C43.8556 13.4463 42.0527 13.4463 40.2392 13.4463C39.8445 13.4463 39.8551 13.4155 39.8551 13.8167C39.8551 14.4648 39.8551 15.1027 39.8551 15.7405C39.8551 15.8023 39.8551 15.864 39.8551 15.9154C39.8551 16.1418 39.8658 16.1418 40.1005 16.1521C41.0179 16.1521 41.9247 16.1521 42.8421 16.1521C44.0903 16.1521 45.3491 16.1521 46.5972 16.1521C46.6932 16.1521 46.7785 16.1521 46.8746 16.1521C46.9279 16.1521 46.9706 16.1932 46.9706 16.2447C46.9706 16.2858 46.9706 16.327 46.9706 16.3681C46.9706 17.0574 46.9706 17.757 46.9706 18.4463C46.9706 18.4771 46.9706 18.508 46.9706 18.5389C46.9599 18.6418 46.9386 18.6623 46.8532 18.6726C46.7785 18.6726 46.7145 18.6726 46.6399 18.6726C43.5462 18.6726 40.4419 18.6726 37.3482 18.6726C36.9855 18.6726 37.0068 18.6829 37.0068 18.3537C37.0175 16.3372 37.0175 14.2899 37.0175 12.2426Z" fill="#424248"/>
<path d="M22.637 10.0204C22.637 8.7241 22.637 7.42781 22.637 6.13152C22.637 5.79202 22.6371 5.80231 22.9678 5.80231C23.7145 5.80231 24.4612 5.80231 25.2187 5.80231C25.2507 5.80231 25.2827 5.80231 25.3147 5.80231C25.528 5.80231 25.528 5.8126 25.528 6.02864C25.528 6.10066 25.528 6.16239 25.528 6.2344C25.528 8.45661 25.528 10.6891 25.528 12.9113C25.528 13.3228 25.5494 13.7446 25.6347 14.1459C25.7414 14.65 25.9441 15.1129 26.3068 15.4936C26.6908 15.8948 27.1602 16.1315 27.7149 16.2343C28.1523 16.3166 28.5897 16.3166 29.0271 16.2343C30.0085 16.0492 30.6592 15.4833 30.9793 14.578C31.1073 14.2179 31.1713 13.8475 31.182 13.4669C31.182 13.3228 31.1926 13.1685 31.1926 13.0245C31.1926 10.7405 31.1926 8.45661 31.1926 6.17268C31.1926 5.77144 31.1606 5.80231 31.566 5.80231C32.2808 5.80231 33.0062 5.80231 33.7209 5.80231C33.7956 5.80231 33.8596 5.80231 33.9343 5.80231C34.0303 5.80231 34.0623 5.83317 34.0729 5.92576C34.0729 6.00807 34.0729 6.08008 34.0729 6.16239C34.0729 8.44632 34.0729 10.7303 34.0729 13.0142C34.0729 13.6521 34.0303 14.2796 33.8809 14.8969C33.6996 15.6582 33.4115 16.3681 32.9208 16.9957C32.4088 17.6644 31.7367 18.1376 30.9366 18.4463C29.9552 18.8269 28.9311 18.9298 27.8856 18.8886C27.3842 18.8681 26.8828 18.8063 26.4028 18.6726C25.5814 18.4565 24.8346 18.0965 24.2159 17.5101C23.7145 17.0265 23.3518 16.4607 23.0958 15.8228C22.8397 15.185 22.7117 14.5162 22.6691 13.8269C22.6264 13.2302 22.637 12.6438 22.637 12.0471C22.637 11.3887 22.637 10.6994 22.637 10.0204Z" fill="#424248"/>
<path d="M50.992 16.8106C50.992 16.4197 50.992 16.0184 50.992 15.6275C50.992 15.576 50.992 15.5246 50.992 15.4834C50.992 15.3806 51.0347 15.36 51.12 15.4114C51.3334 15.5349 51.5361 15.6583 51.7494 15.7715C52.6348 16.2345 53.5843 16.4505 54.587 16.3785C54.9284 16.3579 55.2591 16.2756 55.5472 16.1007C56.0805 15.7921 56.1766 15.3188 56.0592 14.8147C56.0272 14.6501 55.9205 14.5061 55.7818 14.3929C55.6005 14.2283 55.3765 14.1151 55.1524 14.0225C54.7897 13.8682 54.4057 13.7551 54.0217 13.6419C53.5629 13.5184 53.1149 13.4053 52.6562 13.2818C52.0054 13.0966 51.3654 12.8806 50.7786 12.5514C50.2132 12.2427 49.7545 11.8209 49.4772 11.2551C49.2851 10.8744 49.1891 10.4732 49.1465 10.0617C49.0931 9.4341 49.1251 8.81682 49.3492 8.22012C49.6799 7.33535 50.2773 6.66663 51.1307 6.22424C51.7707 5.88474 52.4642 5.69956 53.1896 5.6584C55.0138 5.54524 56.6886 5.94647 58.1821 6.98556C58.6408 7.30448 58.6301 7.21189 58.3208 7.65428C57.9794 8.13781 57.6487 8.62135 57.3073 9.10488C57.254 9.1769 57.2007 9.24892 57.1473 9.32093C57.1047 9.38266 57.0513 9.39295 56.9873 9.3518C56.934 9.32093 56.8806 9.27978 56.838 9.24892C56.4219 8.98143 55.9845 8.73452 55.5258 8.53904C54.8751 8.26127 54.2137 8.09666 53.4989 8.13781C53.1362 8.15839 52.7949 8.24069 52.4748 8.42588C51.8134 8.82711 51.8774 9.81476 52.4215 10.1543C52.6135 10.2777 52.8055 10.3703 53.0189 10.4526C53.3923 10.5966 53.7763 10.6995 54.1603 10.8127C54.6617 10.9464 55.1738 11.0802 55.6645 11.2242C56.3579 11.4403 57.03 11.7077 57.6274 12.1296C58.3421 12.6337 58.7795 13.2921 58.9182 14.1357C59.0355 14.897 58.9929 15.6378 58.7262 16.3579C58.3955 17.2221 57.7981 17.86 56.9553 18.2921C56.2939 18.6316 55.5792 18.8065 54.8431 18.8682C53.6269 18.9608 52.4535 18.8168 51.3014 18.4052C50.9387 18.2715 50.9813 18.3126 50.9707 17.9731C50.992 17.5822 50.992 17.2015 50.992 16.8106Z" fill="#424248"/>
<path d="M65.7563 5.80246C67.4524 5.80246 69.138 5.80246 70.8341 5.80246C71.2075 5.80246 71.1862 5.78189 71.1862 6.14197C71.1862 6.79011 71.1862 7.44854 71.1862 8.09669C71.1862 8.17899 71.1862 8.25101 71.1755 8.33331C71.1755 8.37446 71.1435 8.40533 71.1008 8.40533C71.0048 8.41562 70.9195 8.41561 70.8235 8.41561C69.778 8.41561 68.7326 8.41561 67.6871 8.41561C67.6125 8.41561 67.5485 8.41561 67.4738 8.41561C67.2071 8.41561 67.2071 8.41561 67.2071 8.6831C67.2071 11.1831 67.2071 13.6934 67.2071 16.1933C67.2071 16.9135 67.2071 17.6337 67.2071 18.3641C67.2071 18.4464 67.2071 18.5184 67.2071 18.6007C67.2071 18.6728 67.1644 18.7036 67.0897 18.7036C67.0364 18.7036 66.9831 18.7036 66.9404 18.7036C66.1616 18.7036 65.3829 18.7036 64.6041 18.7036C64.5508 18.7036 64.4975 18.7036 64.4548 18.7036C64.3801 18.7036 64.3374 18.6625 64.3374 18.5904C64.3374 18.4979 64.3374 18.4156 64.3374 18.323C64.3374 15.144 64.3374 11.9753 64.3374 8.79627C64.3374 8.70368 64.3374 8.62137 64.3374 8.52878C64.3374 8.45677 64.2948 8.4259 64.2201 8.4259C64.1348 8.4259 64.0601 8.4259 63.9747 8.4259C62.8653 8.4259 61.7558 8.4259 60.6464 8.4259C60.3904 8.4259 60.369 8.43619 60.369 8.1687C60.369 7.46912 60.369 6.75925 60.369 6.05966C60.369 6.0288 60.369 5.99794 60.369 5.96707C60.3797 5.83333 60.3904 5.81275 60.529 5.80246C60.6144 5.80246 60.6891 5.80246 60.7744 5.80246C62.4066 5.80246 64.0814 5.80246 65.7563 5.80246Z" fill="#424248"/>
<path d="M85.4384 9.22845C84.809 7.9836 83.8596 7.02681 82.5901 6.36838C81.5447 5.8334 80.4246 5.58649 79.2511 5.56592C79.0271 5.57621 78.8031 5.58649 78.579 5.60707C77.6616 5.6688 76.7762 5.89513 75.9548 6.30665C74.0239 7.27373 72.8398 8.80664 72.381 10.8539C72.1357 11.9239 72.1784 12.9939 72.4664 14.0638C73.0745 16.3375 74.9307 18.2613 77.6936 18.7963C79.0804 19.0638 80.4459 18.9609 81.7794 18.4774C83.0489 18.0144 84.0623 17.2428 84.8517 16.1934C85.5451 15.2778 85.9398 14.249 86.0892 13.1276C86.2705 11.7696 86.0679 10.463 85.4384 9.22845ZM83.0489 13.1276C82.8888 13.9712 82.5048 14.7222 81.8434 15.3189C81.118 15.9671 80.2646 16.2963 79.2831 16.3066C78.0563 16.3272 77.0535 15.8745 76.2535 14.9897C75.8694 14.5679 75.6134 14.0741 75.4427 13.5391C75.304 13.107 75.2294 12.6749 75.24 12.3971C75.2507 11.2346 75.5387 10.3293 76.1895 9.55766C76.8295 8.79635 77.6723 8.35397 78.6857 8.23051C79.4645 8.13792 80.2006 8.25108 80.894 8.5803C81.726 8.98153 82.3234 9.58853 82.7182 10.4013C83.1235 11.2758 83.2302 12.1914 83.0489 13.1276Z" fill="#424248"/>
<path d="M99.8827 18.4978C98.9332 17.1295 97.9945 15.7715 97.045 14.4032C96.9917 14.3312 96.9383 14.2591 96.8957 14.1768C96.8637 14.1254 96.885 14.0842 96.9383 14.0637C97.109 13.9917 97.2797 13.9196 97.4397 13.8373C98.4745 13.3024 99.1679 12.4896 99.4666 11.3888C99.7013 10.5246 99.6906 9.65012 99.4666 8.77564C99.3173 8.2098 99.0506 7.70569 98.6559 7.2633C98.1011 6.64602 97.3971 6.26537 96.5863 6.04932C95.9462 5.87442 95.2955 5.8127 94.6448 5.8127C92.7886 5.8127 90.9324 5.8127 89.0762 5.8127C88.6921 5.8127 88.7135 5.79212 88.7135 6.17278C88.7135 10.2365 88.7135 14.3003 88.7135 18.3743C88.7135 18.4464 88.7135 18.5081 88.7135 18.5801C88.7135 18.683 88.7455 18.7036 88.8415 18.7138C88.9162 18.7138 88.9802 18.7138 89.0548 18.7138C89.7909 18.7138 90.527 18.7138 91.2737 18.7138C91.6258 18.7138 91.6044 18.7241 91.6044 18.3846C91.6044 17.253 91.6044 16.1316 91.6044 14.9999C91.6044 14.9176 91.6044 14.8456 91.6044 14.7633C91.6151 14.6192 91.6364 14.5884 91.7858 14.5884C92.4259 14.5884 93.0553 14.5884 93.6953 14.5884C93.8127 14.5884 93.8874 14.6295 93.9514 14.7221C93.9727 14.753 94.0047 14.7838 94.026 14.8147C94.6234 15.6995 95.2315 16.5842 95.8289 17.469C96.0743 17.8291 96.3303 18.1994 96.565 18.5595C96.6397 18.6624 96.7143 18.7138 96.8423 18.7036C96.8637 18.7036 96.885 18.7036 96.9063 18.7036C97.8664 18.7036 98.8372 18.7036 99.7973 18.7036C99.8613 18.7036 99.9147 18.7138 100 18.6521C99.9467 18.5904 99.9147 18.5389 99.8827 18.4978ZM96.661 10.6686C96.501 11.3682 96.0209 11.7797 95.3275 11.9649C95.0288 12.0472 94.7195 12.0678 94.4101 12.0678C93.5567 12.0678 92.7032 12.0678 91.8605 12.0678C91.8285 12.0678 91.7965 12.0678 91.7645 12.0678C91.6151 12.0575 91.5938 12.0369 91.5831 11.8826C91.5831 11.3168 91.5831 10.7509 91.5831 10.1954C91.5831 9.69127 91.5831 9.18716 91.5831 8.68305C91.5831 8.61103 91.5831 8.5493 91.5831 8.47729C91.5831 8.40527 91.6258 8.36412 91.7005 8.36412C91.7751 8.36412 91.8391 8.36412 91.9138 8.36412C92.7246 8.36412 93.5353 8.36412 94.3461 8.36412C94.5914 8.36412 94.8368 8.38469 95.0821 8.41556C95.3382 8.45671 95.5835 8.52873 95.8076 8.65218C96.1916 8.85794 96.469 9.14601 96.597 9.55753C96.725 9.92789 96.757 10.2983 96.661 10.6686Z" fill="#424248"/>
<path d="M21.0903 17.284L18.1246 14.5371C17.4205 15.5968 16.5031 16.5227 15.4257 17.2429L18.2633 20L21.0903 17.284Z" fill="#E9511D"/>
<path d="M9.82505 15.1439C6.5607 15.1439 3.91509 12.6028 3.91509 9.46496C3.91509 6.32712 6.5607 3.78598 9.82505 3.78598C13.0894 3.78598 15.735 6.32712 15.735 9.46496C15.735 10.3086 15.543 11.111 15.2016 11.8312L18.1353 14.5472C19.106 13.076 19.6714 11.3374 19.6714 9.46496C19.6714 4.23866 15.2656 0 9.83572 0C4.4058 0 0 4.23866 0 9.46496C0 14.6913 4.4058 18.9299 9.83572 18.9299C11.9159 18.9299 13.8468 18.3024 15.447 17.2427L12.6094 14.4855C11.7666 14.9073 10.8278 15.1439 9.82505 15.1439Z" fill="#E9511D"/>
</svg>
